<svg height="512pt" viewBox="-22 0 511 512" width="512pt" xmlns="http://www.w3.org/2000/svg"><path d="m92.820312 104.28125c-5.570312 5.570312-14.601562 5.570312-20.171874 0l-35.796876-35.800781c-5.570312-5.566407-5.570312-14.597657 0-20.167969 5.566407-5.570312 14.597657-5.570312 20.167969 0l25.714844 25.714844 45.269531-45.273438c2.542969-2.539062 5.808594-3.910156 9.132813-4.128906v-6.046875c0-6.058594-4.953125-11.011719-11.007813-11.011719h-106.894531c-6.058594 0-11.011719 4.953125-11.011719 11.011719v95.882813c0 6.054687 4.953125 11.011718 11.011719 11.011718h106.894531c6.054688 0 11.007813-4.957031 11.007813-11.011718v-54.496094zm0 0" fill="#54a0ff"/><path d="m38.226562 114.460938v-44.605469l-1.375-1.375c-5.570312-5.570313-5.570312-14.597657 0-20.167969.433594-.4375.898438-.828125 1.375-1.195312v-28.542969c0-6.054688 4.953126-11.007813 11.007813-11.007813h-30c-6.054687 0-11.011719 4.953125-11.011719 11.007813v95.886719c0 6.054687 4.957032 11.007812 11.011719 11.007812h30c-6.054687.003906-11.007813-4.953125-11.007813-11.007812zm0 0" fill="#338def"/><path d="m148.527344 28.402344c-5.769532-5.769532-15.105469-5.769532-20.875 0l-44.917969 44.917968-25.359375-25.363281c-5.753906-5.753906-15.121094-5.753906-20.878906 0-5.769532 5.769531-5.769532 15.109375 0 20.878907l35.800781 35.796874c5.753906 5.757813 15.121094 5.757813 20.875 0l55.355469-55.355468c5.769531-5.765625 5.773437-15.105469 0-20.875zm0 0" fill="#feca57"/><path d="m62.015625 68.835938c-4.96875-4.972657-5.644531-12.585938-2.054687-18.289063l-2.585938-2.589844c-5.753906-5.753906-15.121094-5.753906-20.878906 0-5.769532 5.769531-5.769532 15.109375 0 20.878907l35.800781 35.796874c5.753906 5.757813 15.121094 5.757813 20.875 0l2.324219-2.320312zm0 0" fill="#f4b537"/><path d="m92.820312 293.824219c-5.570312 5.570312-14.601562 5.570312-20.171874 0l-35.796876-35.800781c-5.570312-5.566407-5.570312-14.601563 0-20.171876 5.566407-5.566406 14.597657-5.566406 20.167969 0l25.714844 25.714844 45.269531-45.269531c2.542969-2.539063 5.808594-3.910156 9.132813-4.128906v-6.046875c0-6.058594-4.953125-11.011719-11.007813-11.011719h-106.894531c-6.058594 0-11.011719 4.953125-11.011719 11.011719v95.882812c0 6.054688 4.953125 11.011719 11.011719 11.011719h106.894531c6.054688 0 11.007813-4.957031 11.007813-11.011719v-54.5zm0 0" fill="#54a0ff"/><path d="m38.226562 304.003906v-44.605468l-1.375-1.375c-5.570312-5.570313-5.570312-14.601563 0-20.171876.433594-.433593.898438-.824218 1.375-1.191406v-28.542968c0-6.054688 4.953126-11.011719 11.007813-11.011719h-30c-6.054687 0-11.011719 4.957031-11.011719 11.011719v95.882812c0 6.058594 4.957032 11.011719 11.011719 11.011719h30c-6.054687 0-11.007813-4.953125-11.007813-11.007813zm0 0" fill="#338def"/><path d="m148.527344 217.945312c-5.769532-5.769531-15.105469-5.769531-20.875 0l-44.917969 44.914063-25.359375-25.359375c-5.753906-5.753906-15.121094-5.753906-20.878906 0-5.769532 5.769531-5.769532 15.105469 0 20.878906l35.800781 35.796875c5.753906 5.757813 15.121094 5.757813 20.875 0l55.355469-55.355469c5.769531-5.765624 5.773437-15.105468 0-20.875zm0 0" fill="#feca57"/><path d="m62.015625 258.378906c-4.96875-4.972656-5.644531-12.585937-2.054687-18.289062l-2.585938-2.589844c-5.753906-5.753906-15.121094-5.753906-20.878906 0-5.769532 5.769531-5.769532 15.105469 0 20.878906l35.800781 35.796875c5.753906 5.757813 15.121094 5.757813 20.875 0l2.324219-2.320312zm0 0" fill="#f4b537"/><path d="m92.820312 483.371094c-5.570312 5.570312-14.601562 5.570312-20.171874 0l-35.796876-35.800782c-5.570312-5.570312-5.570312-14.601562 0-20.171874 5.566407-5.566407 14.597657-5.566407 20.167969 0l25.714844 25.714843 45.269531-45.269531c2.542969-2.542969 5.808594-3.910156 9.132813-4.128906v-6.046875c0-6.058594-4.953125-11.011719-11.007813-11.011719h-106.894531c-6.058594 0-11.011719 4.953125-11.011719 11.011719v95.882812c0 6.054688 4.953125 11.011719 11.011719 11.011719h106.894531c6.054688 0 11.007813-4.957031 11.007813-11.011719v-54.5zm0 0" fill="#54a0ff"/><path d="m38.226562 493.550781v-44.605469l-1.375-1.375c-5.570312-5.570312-5.570312-14.601562 0-20.171874.433594-.4375.898438-.824219 1.375-1.191407v-28.542969c0-6.054687 4.953126-11.011718 11.007813-11.011718h-30c-6.054687 0-11.011719 4.957031-11.011719 11.011718v95.882813c0 6.058594 4.957032 11.011719 11.011719 11.011719h30c-6.054687 0-11.007813-4.953125-11.007813-11.007813zm0 0" fill="#338def"/><path d="m148.527344 407.492188c-5.769532-5.769532-15.105469-5.773438-20.875 0l-44.917969 44.914062-25.359375-25.359375c-5.753906-5.753906-15.121094-5.753906-20.878906 0-5.769532 5.769531-5.769532 15.105469 0 20.878906l35.800781 35.796875c5.753906 5.757813 15.121094 5.757813 20.875 0l55.355469-55.355468c5.769531-5.769532 5.773437-15.105469 0-20.875zm0 0" fill="#feca57"/><path d="m62.015625 447.925781c-4.96875-4.972656-5.644531-12.585937-2.054687-18.289062l-2.585938-2.589844c-5.753906-5.753906-15.121094-5.753906-20.878906 0-5.769532 5.769531-5.769532 15.105469 0 20.878906l35.800781 35.796875c5.753906 5.757813 15.121094 5.757813 20.875 0l2.324219-2.320312zm0 0" fill="#f4b537"/><path d="m194.109375 17.785156c-4.144531 0-7.5 3.359375-7.5 7.5 0 4.144532 3.355469 7.5 7.5 7.5h266.75c4.144531 0 7.5-3.355468 7.5-7.5 0-4.140625-3.355469-7.5-7.5-7.5zm0 0"/><path d="m460.859375 58.953125h-266.75c-4.144531 0-7.5 3.359375-7.5 7.5s3.355469 7.5 7.5 7.5h266.75c4.144531 0 7.5-3.359375 7.5-7.5s-3.359375-7.5-7.5-7.5zm0 0"/><path d="m460.859375 100.117188h-266.75c-4.144531 0-7.5 3.359374-7.5 7.503906 0 4.140625 3.355469 7.5 7.5 7.5h266.75c4.144531 0 7.5-3.359375 7.5-7.5 0-4.144532-3.359375-7.503906-7.5-7.503906zm0 0"/><path d="m460.859375 207.332031h-266.75c-4.144531 0-7.5 3.359375-7.5 7.5 0 4.144531 3.355469 7.5 7.5 7.5h266.75c4.144531 0 7.5-3.355469 7.5-7.5 0-4.140625-3.359375-7.5-7.5-7.5zm0 0"/><path d="m460.859375 248.5h-266.75c-4.144531 0-7.5 3.355469-7.5 7.5 0 4.140625 3.355469 7.5 7.5 7.5h266.75c4.144531 0 7.5-3.359375 7.5-7.5 0-4.144531-3.359375-7.5-7.5-7.5zm0 0"/><path d="m460.859375 289.664062h-266.75c-4.144531 0-7.5 3.359376-7.5 7.5 0 4.144532 3.355469 7.503907 7.5 7.503907h266.75c4.144531 0 7.5-3.359375 7.5-7.503907 0-4.140624-3.359375-7.5-7.5-7.5zm0 0"/><path d="m460.859375 394.628906h-266.75c-4.144531 0-7.5 3.355469-7.5 7.5 0 4.140625 3.355469 7.5 7.5 7.5h266.75c4.144531 0 7.5-3.359375 7.5-7.5 0-4.144531-3.359375-7.5-7.5-7.5zm0 0"/><path d="m460.859375 435.792969h-266.75c-4.144531 0-7.5 3.359375-7.5 7.5 0 4.144531 3.355469 7.503906 7.5 7.503906h266.75c4.144531 0 7.5-3.359375 7.5-7.503906 0-4.140625-3.359375-7.5-7.5-7.5zm0 0"/><path d="m460.859375 476.960938h-266.75c-4.144531 0-7.5 3.359374-7.5 7.5 0 4.144531 3.355469 7.5 7.5 7.5h266.75c4.144531 0 7.5-3.355469 7.5-7.5 0-4.140626-3.359375-7.5-7.5-7.5zm0 0"/><path d="m19.011719 512h106.894531c10.207031 0 18.511719-8.304688 18.511719-18.511719v-51.390625l8.839843-8.839844c8.503907-8.503906 8.507813-22.269531 0-30.777343-2.566406-2.566407-5.621093-4.339844-8.863281-5.355469-.257812-9.984375-8.441406-18.03125-18.488281-18.03125h-106.894531c-10.207031 0-18.511719 8.304688-18.511719 18.511719v95.882812c0 10.207031 8.304688 18.511719 18.511719 18.511719zm123.636719-89.347656-55.355469 55.355468c-2.585938 2.601563-6.902344 2.660157-9.5625 0-21.960938-21.960937-13.84375-13.84375-35.800781-35.800781-2.640626-2.640625-2.644532-6.917969 0-9.5625 2.617187-2.617187 6.921874-2.644531 9.5625 0l25.714843 25.714844c2.957031 2.953125 7.71875 2.886719 10.609375 0l45.269532-45.269531c2.691406-2.667969 6.976562-2.589844 9.5625 0 2.640624 2.640625 2.644531 6.917968 0 9.5625zm-127.148438-25.046875c0-1.902344 1.609375-3.511719 3.511719-3.511719h106.894531c1.902344 0 3.511719 1.609375 3.511719 3.511719v.214843c-2.457031 1.035157-4.921875 2.644532-6.941407 4.660157l-39.964843 39.964843-20.410157-20.410156c-8.5-8.496094-22.304687-8.46875-30.777343 0-8.503907 8.503906-8.507813 22.273438 0 30.777344 21.957031 21.960938 13.84375 13.84375 35.800781 35.800781 8.617188 8.59375 22.425781 8.398438 30.777344 0l31.515625-31.515625v36.390625c0 1.902344-1.609375 3.511719-3.511719 3.511719h-106.894531c-1.902344 0-3.511719-1.609375-3.511719-3.511719zm0 0"/><path d="m19.011719 322.453125h35.945312c4.144531 0 7.5-3.359375 7.5-7.5s-3.355469-7.5-7.5-7.5h-35.945312c-1.902344 0-3.511719-1.609375-3.511719-3.511719v-95.882812c0-1.902344 1.609375-3.507813 3.511719-3.507813h106.894531c1.726562 0 3.511719 1.359375 3.511719 3.726563-2.4375 1.019531-4.921875 2.640625-6.941407 4.65625l-39.964843 39.964844-20.410157-20.410157c-8.535156-8.53125-22.308593-8.464843-30.777343 0-8.503907 8.507813-8.507813 22.273438 0 30.78125l35.800781 35.796875c8.515625 8.515625 22.285156 8.492188 30.777344 0l31.515625-31.515625v36.390625c0 1.902344-1.609375 3.511719-3.511719 3.511719h-35.945312c-4.144532 0-7.5 3.359375-7.5 7.5s3.355468 7.5 7.5 7.5h35.945312c10.207031 0 18.511719-8.304687 18.511719-18.511719v-51.390625l8.839843-8.839843c8.503907-8.503907 8.507813-22.269532 0-30.777344-2.566406-2.566406-5.621093-4.339844-8.863281-5.355469-.257812-9.984375-8.441406-18.03125-18.488281-18.03125h-106.894531c-10.207031 0-18.511719 8.304687-18.511719 18.511719v95.882812c0 10.207032 8.304688 18.511719 18.511719 18.511719zm123.636719-89.347656-55.355469 55.355469c-2.628907 2.625-6.921875 2.636718-9.5625 0l-35.800781-35.800782c-1.273438-1.273437-1.980469-2.972656-1.980469-4.78125 0-5.984375 7.285156-9.039062 11.542969-4.78125l25.714843 25.714844c2.929688 2.929688 7.679688 2.929688 10.609375 0l45.269532-45.269531c2.675781-2.652344 6.960937-2.605469 9.5625 0 2.640624 2.640625 2.644531 6.917969 0 9.5625zm0 0"/><path d="m19.011719 132.90625h35.945312c4.144531 0 7.5-3.359375 7.5-7.5 0-4.144531-3.355469-7.5-7.5-7.5h-35.945312c-1.902344 0-3.511719-1.609375-3.511719-3.511719v-95.882812c0-1.902344 1.609375-3.511719 3.511719-3.511719h106.894531c1.761719 0 3.511719 1.394531 3.511719 3.726562-2.132813.894532-4.800781 2.523438-6.941407 4.660157l-39.964843 39.96875-20.410157-20.414063c-8.421874-8.414062-22.230468-8.546875-30.777343 0-8.507813 8.511719-8.507813 22.273438 0 30.777344l35.796875 35.800781c.035156.035157.074218.0625.109375.097657 8.59375 8.472656 22.277343 8.296874 30.671875-.097657l31.511718-31.515625v36.390625c0 1.902344-1.605468 3.511719-3.507812 3.511719h-35.945312c-4.144532 0-7.503907 3.355469-7.503907 7.5 0 4.140625 3.359375 7.5 7.503907 7.5h35.945312c10.207031 0 18.511719-8.304688 18.511719-18.511719v-51.390625l8.835937-8.839844c8.507813-8.503906 8.511719-22.269531.003906-30.777343-2.566406-2.566407-5.621093-4.339844-8.863281-5.355469-.261719-9.984375-8.445312-18.03125-18.488281-18.03125h-106.894531c-10.207031 0-18.511719 8.304688-18.511719 18.511719v95.882812c0 10.207031 8.304688 18.511719 18.511719 18.511719zm123.636719-89.347656-55.355469 55.351562c-2.632813 2.636719-6.929688 2.636719-9.5625 0l-35.800781-35.796875c-1.273438-1.277343-1.976563-2.976562-1.976563-4.78125 0-6.03125 7.3125-9.015625 11.542969-4.78125l25.714844 25.710938c2.953124 2.957031 7.71875 2.890625 10.605468 0l45.269532-45.269531c2.605468-2.601563 6.914062-2.644532 9.566406 0 2.636718 2.644531 2.640625 6.921874-.003906 9.566406zm0 0"/></svg>