<svg height="512pt" viewBox="-63 0 512 512" width="512pt" xmlns="http://www.w3.org/2000/svg"><path d="m191.640625 50.027344c-78.378906.585937-142.03125 65.113281-141.59375 143.496094.273437 48.855468 25.101563 91.890624 62.769531 117.402343 10.863282 7.355469 17.421875 19.570313 17.421875 32.691407v19.941406h124.984375v-19.9375c0-12.972656 6.316406-25.21875 17.078125-32.464844 38.070313-25.621094 63.117188-69.109375 63.117188-118.449219 0-79.164062-64.472657-143.269531-143.777344-142.679687zm0 0" fill="#feca57"/><path d="m142.816406 310.925781c-37.667968-25.511719-62.496094-68.546875-62.765625-117.402343-.414062-73.691407 55.828125-135.132813 127.691407-142.707032-5.285157-.554687-10.65625-.828125-16.101563-.789062-78.378906.585937-142.03125 65.117187-141.59375 143.496094.273437 48.855468 25.101563 91.890624 62.769531 117.402343 10.863282 7.355469 17.421875 19.570313 17.421875 32.691407v19.941406h30v-19.941406c0-13.121094-6.558593-25.335938-17.421875-32.691407zm0 0" fill="#f4b537"/><path d="m220.3125 228.359375h-55.164062c-6.410157 0-11.652344 5.246094-11.652344 11.652344v2.175781c0 6.410156 5.242187 11.652344 11.652344 11.652344h55.164062c6.410156 0 11.652344-5.242188 11.652344-11.652344v-2.175781c0-6.40625-5.242188-11.652344-11.652344-11.652344zm0 0" fill="#f4b537"/><path d="m220.3125 237.003906h-55.164062c-3.636719 0-6.894532-1.691406-9.035157-4.320312-1.632812 2.003906-2.617187 4.554687-2.617187 7.328125v2.175781c0 6.40625 5.242187 11.652344 11.652344 11.652344h55.164062c6.410156 0 11.652344-5.246094 11.652344-11.652344v-2.175781c0-2.773438-.984375-5.324219-2.617188-7.328125-2.140625 2.628906-5.398437 4.320312-9.035156 4.320312zm0 0" fill="#e59d1f"/><path d="m192.730469 502.566406c14.679687 0 26.578125-12.441406 26.578125-27.789062h-53.160156c.003906 15.34375 11.902343 27.789062 26.582031 27.789062zm0 0" fill="#576574"/><path d="m196.152344 474.773438h-30c0 15.347656 11.898437 27.789062 26.578125 27.789062 5.566406 0 10.730469-1.789062 15.003906-4.847656-6.992187-5.007813-11.582031-13.410156-11.582031-22.941406zm0 0" fill="#3e4b5a"/><path d="m261.910156 464.332031v-16.503906c0-6.410156-5.242187-11.652344-11.648437-11.652344h-115.058594c-6.410156 0-11.652344 5.242188-11.652344 11.652344v16.503906c0 6.410157 5.242188 11.652344 11.652344 11.652344h115.058594c6.40625 0 11.648437-5.242187 11.648437-11.652344zm0 0" fill="#54a0ff"/><path d="m250.261719 451.734375h-115.058594c-5.050781 0-9.367187-3.261719-10.972656-7.78125-.433594 1.214844-.679688 2.515625-.679688 3.871094v16.507812c0 6.410157 5.242188 11.652344 11.652344 11.652344h115.058594c6.40625 0 11.648437-5.242187 11.648437-11.652344v-16.503906c0-1.359375-.246094-2.660156-.679687-3.875-1.605469 4.519531-5.921875 7.78125-10.96875 7.78125zm0 0" fill="#338def"/><path d="m265.554688 397.367188h-145.644532c-6.410156 0-11.652344 5.242187-11.652344 11.652343v16.503907c0 6.410156 5.242188 11.652343 11.652344 11.652343h145.644532c6.40625 0 11.648437-5.242187 11.648437-11.652343v-16.503907c0-6.410156-5.242187-11.652343-11.648437-11.652343zm0 0" fill="#e4eaf8"/><path d="m265.554688 412.925781h-145.644532c-5.050781 0-9.367187-3.265625-10.972656-7.78125-.433594 1.214844-.679688 2.515625-.679688 3.875v16.503907c0 6.410156 5.242188 11.652343 11.652344 11.652343h145.644532c6.40625 0 11.648437-5.242187 11.648437-11.652343v-16.503907c0-1.359375-.246094-2.660156-.679687-3.875-1.605469 4.515625-5.921876 7.78125-10.96875 7.78125zm0 0" fill="#c7d2e5"/><path d="m265.554688 358.558594h-145.644532c-6.410156 0-11.652344 5.242187-11.652344 11.648437v16.507813c0 6.40625 5.242188 11.652344 11.652344 11.652344h145.644532c6.40625 0 11.648437-5.246094 11.648437-11.652344v-16.507813c0-6.40625-5.242187-11.648437-11.648437-11.648437zm0 0" fill="#c7d2e5"/><path d="m265.554688 374.113281h-145.644532c-5.050781 0-9.367187-3.261719-10.972656-7.777343-.433594 1.214843-.679688 2.515624-.679688 3.871093v16.507813c0 6.40625 5.242188 11.652344 11.652344 11.652344h145.644532c6.40625 0 11.648437-5.246094 11.648437-11.652344v-16.507813c0-1.355469-.246094-2.65625-.679687-3.871093-1.605469 4.515624-5.921876 7.777343-10.96875 7.777343zm0 0" fill="#bac7db"/><path d="m385.285156 192.644531c0-4.144531-3.355468-7.5-7.5-7.5h-21.226562c-4.144532 0-7.5 3.355469-7.5 7.5 0 4.140625 3.355468 7.5 7.5 7.5h21.226562c4.144532 0 7.5-3.359375 7.5-7.5zm0 0"/><path d="m36.230469 192.644531c0-4.144531-3.359375-7.5-7.5-7.5h-21.230469c-4.144531 0-7.5 3.355469-7.5 7.5 0 4.140625 3.355469 7.5 7.5 7.5h21.230469c4.140625 0 7.5-3.359375 7.5-7.5zm0 0"/><path d="m313.851562 82.042969 15.011719-15.011719c2.929688-2.929688 2.929688-7.679688 0-10.605469-2.929687-2.929687-7.679687-2.929687-10.609375 0l-15.007812 15.007813c-2.929688 2.929687-2.929688 7.679687 0 10.609375 2.925781 2.925781 7.675781 2.929687 10.605468 0zm0 0"/><path d="m71.433594 303.246094-15.011719 15.011718c-2.925781 2.925782-2.925781 7.675782 0 10.605469 2.933594 2.929688 7.679687 2.929688 10.609375 0l15.011719-15.011719c2.929687-2.929687 2.929687-7.679687 0-10.605468-2.929688-2.929688-7.679688-2.929688-10.609375 0zm0 0"/><path d="m200.144531 28.730469v-21.230469c0-4.140625-3.359375-7.5-7.5-7.5-4.144531 0-7.503906 3.359375-7.503906 7.5v21.230469c0 4.140625 3.359375 7.5 7.503906 7.5 4.140625 0 7.5-3.359375 7.5-7.5zm0 0"/><path d="m82.039062 82.042969c2.933594-2.929688 2.933594-7.679688.003907-10.609375l-15.011719-15.007813c-2.929688-2.929687-7.679688-2.929687-10.605469 0-2.929687 2.929688-2.929687 7.675781-.003906 10.605469l15.011719 15.011719c2.929687 2.929687 7.679687 2.929687 10.605468 0zm0 0"/><path d="m328.863281 328.863281c2.929688-2.929687 2.929688-7.679687 0-10.605469l-15.011719-15.011718c-2.929687-2.929688-7.679687-2.929688-10.605468 0-2.929688 2.929687-2.929688 7.675781 0 10.605468l15.007812 15.011719c2.929688 2.929688 7.679688 2.929688 10.609375 0zm0 0"/><path d="m108.523438 317.070312c8.84375 5.992188 14.128906 15.890626 14.128906 26.480469v7.441407h-2.832032c-10.558593 0-19.148437 8.589843-19.148437 19.148437v16.507813c0 4.386718 1.496094 8.417968 3.984375 11.652343-2.488281 3.230469-3.984375 7.265625-3.984375 11.652344v16.503906c0 9.429688 6.851563 17.269531 15.835937 18.847657-.34375 1.429687-.546874 2.917968-.546874 4.457031v16.503906c0 10.5625 8.59375 19.152344 19.152343 19.152344h24.292969c3.425781 15.195312 17.019531 26.582031 33.238281 26.582031 16.214844 0 29.808594-11.386719 33.238281-26.582031h24.289063c10.5625 0 19.152344-8.589844 19.152344-19.152344v-16.503906c0-1.539063-.203125-3.027344-.546875-4.457031 8.984375-1.578126 15.839844-9.417969 15.839844-18.847657v-16.503906c0-4.386719-1.5-8.421875-3.988282-11.652344 2.492188-3.234375 3.988282-7.265625 3.988282-11.652343v-16.507813c0-10.558594-8.59375-19.148437-19.152344-19.148437h-2.828125v-7.4375c0-10.628907 5.144531-20.441407 13.765625-26.242188 36.21875-24.375 60.019531-63.105469 65.300781-106.257812.5-4.109376-2.421875-7.851563-6.535156-8.355469-4.097657-.503907-7.851563 2.421875-8.355469 6.535156-4.75 38.828125-26.175781 73.6875-58.785156 95.636719-12.769532 8.59375-20.390625 23.054687-20.390625 38.683594v7.4375h-47.492188v-89.71875h20.082031c10.5625 0 19.152344-8.589844 19.152344-19.152344v-2.175782c0-10.558593-8.59375-19.152343-19.152344-19.152343h-55.164062c-10.5625 0-19.152344 8.59375-19.152344 19.152343v2.175782c0 10.5625 8.589844 19.152344 19.152344 19.152344h20.082031v89.71875h-47.492187v-7.441407c0-15.570312-7.746094-30.113281-20.714844-38.898437-36.996094-25.054688-59.226562-66.640625-59.476562-111.238282-.382813-68.523437 50.605468-126.53125 118.601562-134.929687 4.109375-.507813 7.03125-4.25 6.523438-8.363281-.507813-4.109375-4.261719-7.035156-8.363282-6.523438-74.957031 9.257813-132.1875 73.804688-131.761718 149.902344.273437 49.542969 24.972656 95.738281 66.0625 123.570312zm52.386718-74.949218v-2.175782c0-2.25 1.898438-4.152343 4.148438-4.152343h55.164062c2.25 0 4.152344 1.902343 4.152344 4.152343v2.175782c0 2.25-1.902344 4.152344-4.152344 4.152344h-55.164062c-2.25 0-4.148438-1.902344-4.148438-4.152344zm14.1875 243.296875h35.089844c-6.617188 15.421875-28.484375 15.394531-35.089844 0zm79.226563-19.152344c0 2.25-1.902344 4.152344-4.152344 4.152344-25.019531 0-90.546875 0-115.058594 0-2.25 0-4.148437-1.902344-4.148437-4.152344v-16.503906c0-2.25 1.898437-4.152344 4.148437-4.152344h115.058594c2.25 0 4.152344 1.902344 4.152344 4.152344zm15.292969-39.808594c0 2.25-1.902344 4.152344-4.152344 4.152344-7.566406 0-139.570313 0-145.644532 0-2.25 0-4.148437-1.902344-4.148437-4.152344v-16.503906c0-2.25 1.898437-4.152344 4.148437-4.152344h145.644532c2.25 0 4.152344 1.902344 4.152344 4.152344zm0-56.316406v16.507813c0 2.25-1.902344 4.152343-4.152344 4.152343h-145.644532c-2.25 0-4.148437-1.902343-4.148437-4.152343v-16.507813c0-2.25 1.898437-4.148437 4.148437-4.148437h145.644532c2.25 0 4.152344 1.898437 4.152344 4.148437zm0 0"/><path d="m211.054688 43.578125c-4.09375-.5-7.851563 2.421875-8.355469 6.535156-.503907 4.113281 2.421875 7.851563 6.535156 8.355469 61.683594 7.542969 110.035156 55.898438 117.578125 117.585938.464844 3.800781 3.699219 6.589843 7.4375 6.589843.304688 0 .609375-.019531.917969-.058593 4.113281-.5 7.039062-4.242188 6.535156-8.355469-8.355469-68.3125-62.636719-122.335938-130.648437-130.652344zm0 0"/></svg>